<?xml version="1.0" standalone="no"?>
<!DOCTYPE svg PUBLIC "-//W3C//DTD SVG 20010904//EN"
 "http://www.w3.org/TR/2001/REC-SVG-20010904/DTD/svg10.dtd">
<svg version="1.0" xmlns="http://www.w3.org/2000/svg"
 width="260.000000pt" height="260.000000pt" viewBox="0 0 260.000000 260.000000"
 preserveAspectRatio="xMidYMid meet">
<metadata>
Created by potrace 1.14, written by Peter Selinger 2001-2017
</metadata>
<g transform="translate(0.000000,260.000000) scale(0.100000,-0.100000)"
fill="#000000" stroke="none">
<path d="M869 1825 c-41 -22 -56 -73 -39 -134 9 -34 43 -79 183 -241 12 -14
57 -67 101 -117 93 -110 129 -135 194 -136 69 -1 94 17 195 137 87 104 223
262 240 281 39 42 53 85 48 151 -2 37 -49 74 -93 74 -71 0 -84 -11 -288 -250
-30 -35 -66 -77 -80 -92 l-25 -28 -114 136 c-158 188 -172 201 -214 219 -45
18 -74 19 -108 0z"/>
<path d="M710 1511 c-26 -25 -29 -35 -26 -78 4 -55 21 -94 63 -138 15 -16 57
-64 92 -105 35 -41 73 -82 85 -91 64 -50 150 -38 180 26 25 51 4 119 -58 188
-19 21 -51 59 -73 85 -99 120 -131 142 -199 142 -26 0 -44 -8 -64 -29z"/>
<path d="M1677 1433 c-43 -28 -54 -102 -24 -160 23 -43 193 -241 231 -268 28
-20 51 -28 83 -29 39 0 49 4 74 32 32 35 36 68 17 123 -13 39 -194 258 -240
290 -41 29 -105 35 -141 12z"/>
<path d="M579 1255 c-27 -15 -49 -60 -49 -100 0 -20 48 -105 73 -129 43 -41
73 -56 112 -56 114 0 140 118 48 221 -70 77 -125 96 -184 64z"/>
<path d="M279 849 c-27 -27 -28 -129 -1 -125 10 2 17 11 16 25 -1 16 4 21 23
21 15 0 27 8 34 24 23 49 -34 93 -72 55z m46 -28 c3 -6 -3 -15 -14 -20 -18
-10 -21 -3 -12 27 2 6 20 1 26 -7z"/>
<path d="M2314 856 c-8 -22 3 -33 18 -18 9 9 9 15 0 24 -9 9 -13 7 -18 -6z"/>
<path d="M363 848 c1 -7 9 -16 17 -19 10 -5 15 -20 14 -50 -1 -40 8 -58 29
-59 4 0 7 25 7 55 0 42 3 55 15 55 8 0 15 7 15 15 0 11 -12 15 -50 15 -35 0
-49 -4 -47 -12z"/>
<path d="M539 858 c-16 -69 -20 -126 -9 -133 15 -9 17 -6 23 38 6 48 17 61 17
21 0 -41 22 -71 37 -52 13 14 13 17 13 55 0 33 12 23 16 -13 4 -38 12 -54 25
-54 14 0 5 118 -10 133 -17 17 -39 0 -46 -35 l-8 -32 -11 34 c-6 19 -19 36
-28 38 -10 2 -18 2 -19 0z"/>
<path d="M790 796 c0 -46 4 -65 14 -69 19 -8 22 2 18 73 -3 43 -8 60 -18 60
-11 0 -14 -16 -14 -64z"/>
<path d="M905 851 c-3 -5 -1 -12 5 -16 12 -7 30 2 30 16 0 12 -27 12 -35 0z"/>
<path d="M1120 840 c0 -14 -7 -20 -21 -20 -22 0 -48 -25 -49 -47 0 -17 37 -53
54 -53 30 0 46 30 46 86 0 41 -4 54 -15 54 -8 0 -15 -9 -15 -20z m0 -64 c0
-21 -21 -31 -30 -15 -5 7 -6 17 -4 21 9 14 34 9 34 -6z"/>
<path d="M1357 849 c-46 -27 -37 -100 15 -118 40 -14 38 -14 38 10 0 11 -4 18
-9 14 -14 -8 -43 25 -39 44 2 9 13 20 26 26 12 5 22 15 22 22 0 16 -28 16 -53
2z"/>
<path d="M1425 851 c-3 -5 -1 -12 5 -16 12 -7 30 2 30 16 0 12 -27 12 -35 0z"/>
<path d="M1818 853 c-3 -7 -3 -73 1 -120 1 -7 8 -13 16 -13 10 0 15 10 15 30
0 20 5 30 15 30 9 0 15 -9 15 -24 0 -13 7 -26 15 -29 19 -8 23 1 18 38 -6 50
-6 59 2 78 10 25 -21 23 -35 -3 -6 -11 -15 -20 -20 -20 -6 0 -10 9 -10 20 0
19 -25 29 -32 13z"/>
<path d="M843 833 c-14 -27 -6 -86 14 -100 22 -17 33 -16 33 2 0 8 -4 15 -10
15 -5 0 -10 9 -10 20 0 11 5 20 10 20 16 0 12 19 -9 41 -18 20 -20 20 -28 2z"/>
<path d="M1582 795 c1 -49 6 -59 30 -68 24 -9 33 10 14 29 -20 20 -20 24 2 40
16 12 16 14 -3 28 -35 27 -45 20 -43 -29z"/>
<path d="M1188 816 c-31 -23 -27 -73 7 -86 33 -12 52 -4 59 26 12 47 -31 85
-66 60z m42 -40 c0 -8 -7 -16 -15 -20 -10 -4 -15 1 -15 14 0 11 7 20 15 20 8
0 15 -6 15 -14z"/>
<path d="M2035 818 c-27 -15 -34 -27 -29 -51 7 -39 53 -57 78 -32 22 22 11 38
-16 24 -12 -7 -24 -7 -29 -2 -11 11 -1 43 13 43 7 0 6 -5 -1 -13 -6 -8 -8 -17
-5 -20 9 -8 44 16 44 30 0 20 -33 33 -55 21z"/>
<path d="M685 783 c6 -42 16 -55 44 -60 25 -4 40 16 43 58 4 44 -24 48 -32 4
-6 -33 -24 -37 -26 -5 -3 37 -4 40 -20 40 -12 0 -14 -8 -9 -37z"/>
<path d="M908 813 c-4 -7 -3 -28 1 -81 1 -8 7 -12 14 -10 17 6 19 98 2 98 -8
0 -15 -3 -17 -7z"/>
<path d="M964 802 c-14 -22 -12 -74 4 -80 12 -4 13 0 16 40 2 34 26 35 26 1 0
-34 7 -44 24 -37 14 5 9 62 -6 82 -15 18 -51 15 -64 -6z"/>
<path d="M1430 769 c0 -66 24 -63 28 4 2 36 -1 47 -13 47 -11 0 -15 -12 -15
-51z"/>
<path d="M1492 811 c-16 -10 -24 -118 -10 -127 14 -9 26 14 21 40 -3 15 -2 17
5 8 18 -26 61 4 62 44 0 37 -43 57 -78 35z m46 -38 c-2 -10 -11 -19 -20 -21
-14 -3 -17 8 -9 36 1 1 8 2 17 2 9 0 14 -7 12 -17z"/>
<path d="M1662 808 c-13 -13 -16 -47 -4 -64 12 -18 52 -27 52 -12 0 10 3 9 10
-2 8 -12 12 -12 18 -2 10 14 9 37 -2 70 -8 25 -53 31 -74 10z m51 -33 c8 -18
-11 -31 -25 -17 -11 11 -3 32 12 32 4 0 10 -7 13 -15z"/>
<path d="M1930 775 c0 -41 6 -50 27 -42 4 1 6 12 5 24 -2 14 4 26 18 33 27 14
17 30 -21 30 -28 0 -29 -2 -29 -45z"/>
<path d="M2126 804 c-35 -34 -7 -79 49 -79 26 0 30 4 31 30 1 17 -3 38 -8 48
-11 21 -51 22 -72 1z m52 -41 c1 -22 0 -24 -8 -13 -5 8 -10 11 -10 5 0 -5 -4
-3 -9 5 -11 16 -5 30 12 30 7 0 14 -12 15 -27z"/>
<path d="M2226 805 c-3 -8 4 -24 16 -35 l22 -20 -23 0 c-30 0 -22 -25 8 -26
12 -1 29 6 38 14 14 14 13 17 -6 33 -24 20 -28 34 -6 25 9 -3 15 0 15 9 0 20
-56 20 -64 0z"/>
<path d="M2310 769 c0 -66 24 -62 28 4 2 37 0 47 -12 47 -12 0 -16 -12 -16
-51z"/>
</g>
</svg>
